<svg width="13" height="12" viewBox="0 0 13 12" fill="none" xmlns="http://www.w3.org/2000/svg">
<path fill-rule="evenodd" clip-rule="evenodd" d="M12.3644 3.23939L10.6144 8.62539H2.15039L0.400391 3.23939L3.85299 5.18599L6.38239 0.400391L8.91179 5.18599L12.3644 3.23939Z" fill="#F8FAFC"/>
<path d="M12.3639 3.23901L12.7443 3.36261C12.7692 3.28601 12.7704 3.20369 12.7477 3.12643C12.725 3.04916 12.6795 2.98054 12.6172 2.92954C12.5549 2.87854 12.4786 2.84754 12.3984 2.84059C12.3182 2.83365 12.2377 2.85108 12.1675 2.8906L12.3639 3.23901ZM10.6139 8.62501V9.02501C10.6984 9.025 10.7807 8.99826 10.849 8.9486C10.9174 8.89895 10.9682 8.82894 10.9943 8.74861L10.6139 8.62501ZM2.14994 8.62501L1.76954 8.74861C1.79564 8.82894 1.84651 8.89895 1.91484 8.9486C1.98318 8.99826 2.06548 9.025 2.14994 9.02501V8.62501ZM0.399944 3.23901L0.596344 2.8906C0.526184 2.85108 0.445726 2.83365 0.365497 2.84059C0.285268 2.84754 0.209004 2.87854 0.146682 2.92954C0.0843592 2.98054 0.0388812 3.04916 0.0161973 3.12643C-0.00648656 3.20369 -0.00532019 3.28601 0.0195442 3.36261L0.399944 3.23901ZM3.85254 5.18561L3.65614 5.53401C3.70269 5.56024 3.75401 5.57689 3.8071 5.58296C3.86018 5.58904 3.91394 5.58442 3.9652 5.56937C4.01647 5.55433 4.0642 5.52917 4.10559 5.49537C4.14697 5.46158 4.18116 5.41983 4.20614 5.37261L3.85254 5.18561ZM6.38194 0.400005L6.73554 0.213005C6.70154 0.148706 6.65065 0.0948965 6.58834 0.0573647C6.52604 0.0198328 6.45468 0 6.38194 0C6.30921 0 6.23785 0.0198328 6.17554 0.0573647C6.11324 0.0948965 6.06235 0.148706 6.02834 0.213005L6.38194 0.400005ZM8.91134 5.18561L8.55774 5.37261C8.58273 5.41983 8.61692 5.46158 8.6583 5.49537C8.69968 5.52917 8.74742 5.55433 8.79868 5.56937C8.84995 5.58442 8.90371 5.58904 8.95679 5.58296C9.00987 5.57689 9.0612 5.56024 9.10774 5.53401L8.91134 5.18561ZM11.9835 3.11561L10.2335 8.50141L10.9943 8.74861L12.7443 3.36261L11.9835 3.11561ZM10.6139 8.22481H2.14994V9.02501H10.6139V8.22481ZM2.53034 8.50121L0.780344 3.11521L0.0195442 3.36261L1.76954 8.74861L2.53034 8.50121ZM0.203544 3.58741L3.65614 5.53401L4.04874 4.83721L0.596144 2.8906L0.203544 3.58741ZM4.20614 5.37261L6.73554 0.587005L6.02834 0.213005L3.49894 4.99881L4.20614 5.37261ZM6.02814 0.587005L8.55774 5.37261L9.26514 4.99861L6.73554 0.213005L6.02814 0.587005ZM9.10774 5.53401L12.5607 3.58741L12.1675 2.8906L8.71514 4.83721L9.10774 5.53401Z" fill="#F8FAFC"/>
<path d="M10.3818 10.4004H2.38184" stroke="#F8FAFC" stroke-width="1.5" stroke-linecap="round" stroke-linejoin="round"/>
</svg>
