<svg width="31" height="31" viewBox="0 0 31 31" fill="none" xmlns="http://www.w3.org/2000/svg">
<path d="M14.5 2.49414H4C3.20435 2.49414 2.44129 2.81021 1.87868 3.37282C1.31607 3.93543 1 4.69849 1 5.49414V26.4941C1 27.2898 1.31607 28.0529 1.87868 28.6155C2.44129 29.1781 3.20435 29.4941 4 29.4941H25C25.7956 29.4941 26.5587 29.1781 27.1213 28.6155C27.6839 28.0529 28 27.2898 28 26.4941V15.9941" stroke="url(#paint0_linear_1571_2007)" stroke-width="2" stroke-linecap="round" stroke-linejoin="round"/>
<path d="M24.0626 1.93198C24.6594 1.33524 25.4687 1 26.3126 1C27.1566 1 27.9659 1.33524 28.5626 1.93198C29.1594 2.52872 29.4946 3.33807 29.4946 4.18198C29.4946 5.02589 29.1594 5.83524 28.5626 6.43198L15.0431 19.953C14.687 20.3089 14.2469 20.5694 13.7636 20.7105L9.45414 21.9705C9.32507 22.0081 9.18825 22.0104 9.058 21.977C8.92776 21.9436 8.80888 21.8759 8.71381 21.7808C8.61874 21.6857 8.55097 21.5669 8.51761 21.4366C8.48424 21.3064 8.48649 21.1696 8.52414 21.0405L9.78414 16.731C9.92593 16.2481 10.1869 15.8086 10.5431 15.453L24.0626 1.93198Z" stroke="url(#paint1_linear_1571_2007)" stroke-width="2" stroke-linecap="round" stroke-linejoin="round"/>
<defs>
<linearGradient id="paint0_linear_1571_2007" x1="14.5" y1="2.49414" x2="14.5" y2="29.4941" gradientUnits="userSpaceOnUse">
<stop stop-color="#2858A4"/>
<stop offset="1" stop-color="#2AC994"/>
</linearGradient>
<linearGradient id="paint1_linear_1571_2007" x1="18.9944" y1="1" x2="18.9944" y2="22.0005" gradientUnits="userSpaceOnUse">
<stop stop-color="#2858A4"/>
<stop offset="1" stop-color="#2AC994"/>
</linearGradient>
</defs>
</svg>
