<svg width="67" height="66" viewBox="0 0 67 66" fill="none" xmlns="http://www.w3.org/2000/svg">
<path d="M33.0823 65.1614C50.8884 65.1614 65.323 50.7626 65.323 33.0009C65.323 15.2391 50.8884 0.840332 33.0823 0.840332C15.2762 0.840332 0.841553 15.2391 0.841553 33.0009C0.841553 50.7626 15.2762 65.1614 33.0823 65.1614Z" fill="url(#paint0_linear_458_825)"/>
<path d="M51.0349 59.4824C45.9038 62.9195 39.7277 64.9248 33.0824 64.9248C27.0034 64.9248 21.3166 63.2466 16.4644 60.3295C16.0127 60.0573 15.5678 59.7751 15.1306 59.4824C15.7368 56.3708 16.6891 53.4406 18.0344 52.0995C21.1018 49.0397 23.2053 48.6059 26.0411 47.604C26.0411 47.604 30.758 50.0568 33.2246 54.6171C33.2246 54.6171 35.6361 50.6958 40.1244 47.604C42.9595 48.6059 45.0637 49.0397 48.1311 52.0995C49.0185 52.9847 49.7348 54.5614 50.2943 56.4257C50.5824 57.3864 50.8286 58.4241 51.0349 59.4824Z" fill="#2AC994"/>
<path d="M29.0159 44.0989C25.7101 44.7691 21.4595 44.3909 19.4935 43.694C19.0548 43.5377 18.6115 43.3532 18.2767 43.0299C17.9411 42.7059 17.734 42.2149 17.8631 41.7681C18.0726 41.0437 18.9654 40.8112 19.5447 40.3255C20.1081 39.8528 20.3802 39.1017 20.4169 38.3675C20.4543 37.6325 20.2823 36.9051 20.0913 36.1952C19.5004 34.0039 18.7131 31.869 18.11 29.68C17.5069 27.491 17.0881 23.9646 17.2593 21.7017C17.4328 19.4387 18.24 17.1681 19.823 15.5387C21.276 14.042 24.192 12.8594 27.1486 13.8979C28.5497 12.0245 30.9895 10.2754 34.7838 9.98418C40.8398 9.51908 44.4147 12.2296 46.6329 15.7644C48.7662 19.1634 48.3604 24.6844 47.6984 28.5867C47.0357 32.4889 46.2026 36.5932 47.6465 40.3018C47.9277 41.0247 48.2962 41.8024 48.037 42.532C47.784 43.2419 47.0159 43.6559 46.2874 43.9502C43.5357 45.0588 40.4324 45.3364 37.4965 44.8103L29.0159 44.0989Z" fill="#2E2E2E"/>
<path d="M40.1241 47.6035C35.6358 50.6952 33.2242 54.6166 33.2242 54.6166C30.7576 50.0563 26.0408 47.6035 26.0408 47.6035C27.3654 46.761 28.4111 45.5166 29.0157 44.0984C29.6463 42.8274 29.7647 41.4756 29.7647 41.4756L36.1655 41.577C36.1655 41.577 36.0638 42.4218 37.4962 44.8098C38.1192 45.9299 39.0257 46.9051 40.1241 47.6035Z" fill="#EFA18F"/>
<path d="M37.4967 44.8098C35.6958 45.098 33.6557 45.0492 31.8534 44.7641C30.9025 44.6139 29.9685 44.3135 29.1628 43.7797C29.6658 42.6117 29.7652 41.4756 29.7652 41.4756L36.1659 41.577C36.1659 41.577 36.1934 42.5804 37.4967 44.8098Z" fill="#E59689"/>
<path d="M46.6795 30.146C46.5763 31.3201 46.4678 32.521 45.9778 33.5946C45.6736 34.2587 45.1691 34.8999 44.456 35.0714C44.1052 35.1546 43.7153 35.0692 43.4149 34.874C42.2837 38.1609 38.6308 44.0837 33.2451 44.0837C27.4329 44.0837 23.9329 37.8925 23.0073 34.6567C22.7038 34.9982 22.1711 35.1812 21.7102 35.0714C20.9978 34.8999 20.4925 34.2587 20.1883 33.5946C19.6991 32.521 19.5898 31.3201 19.4866 30.146C19.4262 29.4575 19.3674 28.7507 19.5547 28.085C19.7136 27.5178 20.092 26.9787 20.6186 26.7393C20.6186 26.7393 21.5687 26.2361 22.8307 26.7393C22.8307 26.7393 22.6618 22.7516 25.5365 22.0403C31.8578 20.4764 33.2466 25.0177 40.8306 21.9808C40.8306 21.9808 42.6315 23.4592 43.0664 26.7393C43.0664 26.7393 43.8995 26.1949 45.3044 26.6539C45.958 26.8201 46.4288 27.4339 46.6123 28.085C46.7988 28.7507 46.7399 29.4575 46.6795 30.146Z" fill="#F7AD97"/>
<path d="M65.3231 32.9999C65.3231 50.7614 50.8889 65.1604 33.0823 65.1604C26.2627 65.1604 19.9376 63.0484 14.7285 59.4443C15.2964 59.7561 15.8758 60.0512 16.4644 60.3287C21.3165 63.2459 27.0034 64.9241 33.0823 64.9241C39.7277 64.9241 45.9037 62.9188 51.0349 59.4816C50.8285 58.4233 50.5824 57.3856 50.2942 56.4249C57.7192 50.5334 62.4789 41.4426 62.4789 31.2432C62.4789 20.2836 56.9839 10.605 48.592 4.79883C58.5646 10.2672 65.3231 20.8455 65.3231 32.9999Z" fill="#E5F6F2"/>
<path d="M51.0349 59.482C45.9037 62.9192 39.7277 64.9244 33.0823 64.9244C27.0034 64.9244 21.3165 63.2463 16.4644 60.3291C20.6408 62.3008 25.3103 63.4041 30.2381 63.4041C37.8191 63.4041 44.7893 60.7942 50.2942 56.4253C50.5824 57.386 50.8285 58.4237 51.0349 59.482Z" fill="#26B585"/>
<path d="M33.0823 66C28.6169 66 24.2845 65.1277 20.2051 63.4061C16.2656 61.744 12.7281 59.3651 9.6898 56.3343C6.65147 53.3035 4.26666 49.7749 2.60036 45.8452C0.875195 41.7759 0 37.4543 0 33C0 28.5457 0.87443 24.2241 2.60036 20.1549C4.26666 16.2251 6.65147 12.6965 9.6898 9.6657C12.7281 6.63492 16.2656 4.25605 20.2051 2.59389C24.2845 0.873017 28.6169 0 33.0823 0C37.5477 0 41.8801 0.872255 45.9595 2.59389C49.899 4.25605 53.4365 6.63492 56.4748 9.6657C59.5131 12.6965 61.8979 16.2251 63.5642 20.1549C65.2894 24.2233 66.1646 28.5457 66.1646 33C66.1646 37.4543 65.2902 41.7759 63.5642 45.8452C61.8979 49.7749 59.5131 53.3035 56.4748 56.3343C53.4365 59.3651 49.899 61.744 45.9595 63.4061C41.8801 65.127 37.5477 66 33.0823 66ZM33.0823 1.67894C28.8431 1.67894 24.7309 2.50697 20.8602 4.14016C17.1209 5.71768 13.7631 7.97609 10.8791 10.8528C7.99521 13.7296 5.73118 17.0791 4.14972 20.809C2.51246 24.6701 1.68236 28.7722 1.68236 33.0008C1.68236 37.2294 2.51246 41.3314 4.14972 45.1925C5.73118 48.9224 7.99521 52.2719 10.8791 55.1487C13.7631 58.0254 17.1209 60.2838 20.8602 61.8614C24.7309 63.4946 28.8431 64.3226 33.0823 64.3226C37.3214 64.3226 41.4337 63.4946 45.3044 61.8614C49.0437 60.2838 52.4015 58.0254 55.2855 55.1487C58.1694 52.2719 60.4334 48.9217 62.0149 45.1925C63.6521 41.3314 64.4822 37.2294 64.4822 33.0008C64.4822 28.7722 63.6521 24.6701 62.0149 20.809C60.4334 17.0791 58.1694 13.7296 55.2855 10.8528C52.4015 7.97609 49.0437 5.71768 45.3044 4.14016C41.4337 2.50697 37.3214 1.67894 33.0823 1.67894Z" fill="url(#paint1_linear_458_825)"/>
<defs>
<linearGradient id="paint0_linear_458_825" x1="0.841553" y1="0.840332" x2="16.6409" y2="76.166" gradientUnits="userSpaceOnUse">
<stop stop-color="#E5F6F2"/>
<stop offset="1" stop-color="#EBF2FB"/>
</linearGradient>
<linearGradient id="paint1_linear_458_825" x1="33.0823" y1="0" x2="33.0823" y2="66" gradientUnits="userSpaceOnUse">
<stop stop-color="#2858A4"/>
<stop offset="1" stop-color="#2AC994"/>
</linearGradient>
</defs>
</svg>
