<svg width="266" height="157" viewBox="0 0 266 157" fill="none" xmlns="http://www.w3.org/2000/svg">
<path d="M197 52C197 54.2091 194.985 56 192.5 56C190.015 56 188 54.2091 188 52C188 49.7909 190.015 48 192.5 48C194.985 48 197 49.7909 197 52ZM189.72 52C189.72 53.3649 190.964 54.4714 192.5 54.4714C194.036 54.4714 195.28 53.3649 195.28 52C195.28 50.6351 194.036 49.5286 192.5 49.5286C190.964 49.5286 189.72 50.6351 189.72 52Z" fill="#BCCBE3"/>
<path d="M60 109C60 113.971 55.9706 118 51 118C46.0294 118 42 113.971 42 109C42 104.029 46.0294 100 51 100C55.9706 100 60 104.029 60 109ZM45.4394 109C45.4394 112.071 47.929 114.561 51 114.561C54.071 114.561 56.5606 112.071 56.5606 109C56.5606 105.929 54.071 103.439 51 103.439C47.929 103.439 45.4394 105.929 45.4394 109Z" fill="#BCCBE3"/>
<path d="M40 10.5C40 12.9853 38.2091 15 36 15C33.7909 15 32 12.9853 32 10.5C32 8.01472 33.7909 6 36 6C38.2091 6 40 8.01472 40 10.5ZM33.5286 10.5C33.5286 12.0355 34.6351 13.2803 36 13.2803C37.3649 13.2803 38.4714 12.0355 38.4714 10.5C38.4714 8.96448 37.3649 7.71969 36 7.71969C34.6351 7.71969 33.5286 8.96448 33.5286 10.5Z" fill="#DFE6F1"/>
<path d="M249 73C249 75.2091 247.209 77 245 77C242.791 77 241 75.2091 241 73C241 70.7909 242.791 69 245 69C247.209 69 249 70.7909 249 73ZM242.529 73C242.529 74.3649 243.635 75.4714 245 75.4714C246.365 75.4714 247.471 74.3649 247.471 73C247.471 71.6351 246.365 70.5286 245 70.5286C243.635 70.5286 242.529 71.6351 242.529 73Z" fill="#BCCBE3"/>
<path d="M100 56.5C100 60.0899 97.0899 63 93.5 63C89.9101 63 87 60.0899 87 56.5C87 52.9101 89.9101 50 93.5 50C97.0899 50 100 52.9101 100 56.5ZM89.484 56.5C89.484 58.718 91.282 60.516 93.5 60.516C95.718 60.516 97.516 58.718 97.516 56.5C97.516 54.282 95.718 52.484 93.5 52.484C91.282 52.484 89.484 54.282 89.484 56.5Z" fill="#EAEEF6"/>
<path d="M81.7217 143.447H72.6875L77.2041 135.623L81.7217 143.447ZM74.4922 142.406H79.9141L77.2031 137.711L74.4922 142.406Z" fill="#DFE6F1"/>
<path d="M238.213 7.82422H229.178L233.695 0L238.213 7.82422ZM230.985 6.7832H236.406L233.695 2.08887L230.985 6.7832Z" fill="#DFE6F1"/>
<path d="M19.0352 76.8242H10L14.5176 69L19.0352 76.8242ZM11.8076 75.7832H17.2285L14.5176 71.0889L11.8076 75.7832Z" fill="#DFE6F1"/>
<path d="M144.319 18.2549H135.284L139.802 10.4297L144.319 18.2549ZM137.091 17.2129H142.513L139.802 12.5186L137.091 17.2129Z" fill="#EAEEF6"/>
<path d="M212.32 134.581L196.411 143.15L196.944 125.088L212.32 134.581ZM198.602 139.601L208.147 134.459L198.921 128.763L198.602 139.601Z" fill="#EAEEF6"/>
</svg>
