<svg width="16" height="16" viewBox="0 0 16 16" fill="none" xmlns="http://www.w3.org/2000/svg">
<g clip-path="url(#clip0_79_5579)">
<path d="M15.9174 4.61693L13.7319 0.438148C13.6044 0.194398 13.2747 -0.00485156 12.9999 -0.00485156H7.96966C7.96418 -0.00508594 7.95868 -0.00657031 7.95319 -0.00683594C7.94869 -0.00683594 7.94444 -0.00507031 7.93993 -0.00483594H2.99993C2.72493 -0.00483594 2.39443 0.193914 2.26518 0.436664L0.0854266 4.53491C-0.044089 4.77766 -0.0180734 5.15893 0.142161 5.38268L7.64241 15.8382C7.72293 15.9504 7.82991 16.0072 7.93666 16.0072C8.04268 16.0072 8.14891 15.9519 8.22991 15.8417L15.8534 5.46268C16.0157 5.24091 16.0449 4.86043 15.9174 4.61693ZM14.7244 4.49438H12.0454L13.1181 1.42238L14.7244 4.49438ZM8.98965 0.995133H12.2079L11.2096 3.85338L8.98965 0.995133ZM10.4411 4.49438H5.7904L7.9884 1.33663L10.4411 4.49438ZM4.9044 4.01713L3.90163 0.995133H7.00813L4.9044 4.01713ZM10.6366 5.49438L7.94863 13.1904L5.39463 5.49438H10.6366ZM6.82688 12.9859L1.45288 5.49438H4.34088L6.82688 12.9859ZM11.6959 5.49438H14.5891L9.07388 13.0031L11.6959 5.49438ZM2.94488 1.28788L4.00888 4.49438H1.23938L2.94488 1.28788Z" fill="url(#paint0_linear_79_5579)"/>
</g>
<defs>
<linearGradient id="paint0_linear_79_5579" x1="7.9999" y1="-0.00683594" x2="7.9999" y2="16.0072" gradientUnits="userSpaceOnUse">
<stop stop-color="#2858A4"/>
<stop offset="1" stop-color="#2AC994"/>
</linearGradient>
<clipPath id="clip0_79_5579">
<rect width="16" height="16" fill="white"/>
</clipPath>
</defs>
</svg>
